# xmcd
# 
# Track frame offsets:
#     150
#     14578
#     31993
#     44289
#     60598
#     81575
#     99322
#     112713
#     126644
#     142262
#     159601
# 
# Disc length: 2365
# 
# Revision: 2
# Processed by: cddbd v1.5.2PL0 Copyright (c) Steve Scherf et al.
# Submitted via: fre:ac v1.1beta1pre3
# 
DISCID=97093b0b
DTITLE=Saint Lu - Saint Lu 2
DYEAR=2013
DGENRE=Blues
TTITLE0=Waterfall
TTITLE1=Craving
TTITLE2=Falling for Your love
TTITLE3=I got a feeling
TTITLE4=No one loves You like I do
TTITLE5=Revive this Flower
TTITLE6=The Letter
TTITLE7=Postcard from Hell
TTITLE8=Mrs Suffer
TTITLE9=Why do I want love
TTITLE10=Lady of the Lanterns
EXTD=
EXTT0=
EXTT1=
EXTT2=
EXTT3=
EXTT4=
EXTT5=
EXTT6=
EXTT7=
EXTT8=
EXTT9=
EXTT10=
PLAYORDER=
